# xmcd
#
# Track frame offsets: 
#        150
#        11910
#        28455
#        39884
#        57123
#        68039
#        79762
#        95783
#        107968
#        117280
#        129868
#        145551
#        158393
#        173833
#        188152
#        204610
#        216262
#        232870
#        247807
#        264177
#        279104
#        296458
#        307808
#        321458
#        334265
#
# Disc length: 4636 seconds
#
# Revision: 1
# Processed by: cddbd v1.5.2PL0 Copyright (c) Steve Scherf et al.
# Submitted via: ExactAudioCopy v1.0b3
#
DISCID=57121a19
DTITLE=The Bryds - Sweetheart Of The Rodeo (紙ジャケット仕様) Original Mono and 
DTITLE=Stereo Blu-spec CD2 2013 DSD Remaster SICP-30414
DYEAR=1968
DGENRE=Rock
TTITLE0=You Ain't Going Nowhere
TTITLE1=I Am a Pilgrim
TTITLE2=The Christian Life
TTITLE3=You Don't Miss Your Water
TTITLE4=You're Still on My Mind
TTITLE5=Pretty Boy Floyd
TTITLE6=Hickory Wind
TTITLE7=One Hundred Years from Now
TTITLE8=Blue Canadian Rockies
TTITLE9=Life in Prison
TTITLE10=Nothing Was Delivered
TTITLE11=You Ain't Going Nowhere [single version]
TTITLE12=Lazy Days
TTITLE13=Reputation
TTITLE14=I Am a Pilgrim [single version]
TTITLE15=Pretty Boy Floyd [single version]
TTITLE16=Hickory Wind [alternate version - take 8]
TTITLE17=Lazy Days [alternate version]
TTITLE18=Pretty Polly [alternate version]
TTITLE19=Life in Prison [rehearsal version - take 1 and 2]
TTITLE20=You Don't Miss Your Water [master take]
TTITLE21=The Christian Life [master take]
TTITLE22=Blue Canadian Rockies [rehearsal version - take 14]
TTITLE23=All I Have Is Memories [master take]
TTITLE24=One Hundred Years from Now [master take]
EXTD=
EXTT0=
EXTT1=
EXTT2=
EXTT3=
EXTT4=
EXTT5=
EXTT6=
EXTT7=
EXTT8=
EXTT9=
EXTT10=
EXTT11=
EXTT12=
EXTT13=
EXTT14=
EXTT15=
EXTT16=
EXTT17=
EXTT18=
EXTT19=
EXTT20=
EXTT21=
EXTT22=
EXTT23=
EXTT24=
PLAYORDER=
